<?xml version="1.0" standalone="no"?><!DOCTYPE svg PUBLIC "-//W3C//DTD SVG 1.1//EN" "http://www.w3.org/Graphics/SVG/1.1/DTD/svg11.dtd"><svg t="1701093699438" class="icon" viewBox="0 0 1024 1024" version="1.1" xmlns="http://www.w3.org/2000/svg" p-id="677" xmlns:xlink="http://www.w3.org/1999/xlink" width="48" height="48"><path d="M954.9 860.33l-413.4-730c-9.3-16.3-30-22.1-46.3-12.8-5.3 3-9.8 7.5-12.8 12.8L69.1 860.23c-9.3 16.3-3.5 37.1 12.8 46.3 5.1 2.9 11 4.4 16.9 4.4h826.7c12.1-0.1 23.2-6.5 29.3-16.9 6-10.4 6.1-23.2 0.1-33.7z" fill="#FF9D1C" p-id="678"></path><path d="M626 617.33l-70.2 172.3c-5.5 13.3-18.5 22.1-32.9 22.1-4.6 0-9.2-0.9-13.4-2.7-18.2-7.4-26.9-28.1-19.6-46.3l50.2-123.3h-88.8c-19.7-0.1-35.6-16.1-35.5-35.7 0-5.4 1.3-10.8 3.7-15.7l85-170c7.2-18.3 27.9-27.3 46.2-20 18.3 7.2 27.3 27.9 20 46.2-0.8 1.9-1.7 3.8-2.8 5.6l-59.4 118.5h84.2c19.6-0.1 35.5 15.7 35.6 35.3 0 4.7-0.9 9.4-2.7 13.7h0.4z" fill="#FFF1DF" p-id="679"></path></svg>